<svg xmlns="http://www.w3.org/2000/svg" viewBox="0 0 1000 1000"><style>.st0{fill:none;stroke:#f2f2f2;stroke-width:63;stroke-miterlimit:10}.st7{display:inline;fill:#fefdfd}</style><g id="Laag_3"><path class="st0" d="M887.53 578.79H643.78v-94.13h273.24c8.2 0 14.76-6.81 14.48-15.01-7.9-233.64-199.8-420.62-435.37-420.62S68.67 236.01 60.76 469.65c-.28 8.2 6.28 15.01 14.48 15.01h273.24v94.13H104.73c-22.74 0-41.18 18.44-41.18 41.18v289.82c0 22.74 18.44 41.18 41.18 41.18h782.8c22.74 0 41.18-18.44 41.18-41.18V619.97c0-22.74-18.44-41.18-41.18-41.18zM348.48 484.66h295.3"/></g></svg>