<svg xmlns="http://www.w3.org/2000/svg" viewBox="0 0 1000 1000"><style>.st0{fill:none;stroke:#f2f2f2;stroke-width:63;stroke-miterlimit:10}</style><g id="Ratatouille"><path class="st0" d="M631 802.96L266.83 917.18c-17.9 5.61-36.96-4.35-42.58-22.25L40.89 310.3c-5.61-17.9 4.35-36.96 22.25-42.58L427.3 153.51c17.9-5.61 36.96 4.35 42.58 22.25l183.37 584.63c5.61 17.89-4.35 36.95-22.25 42.57z"/><path class="st0" d="M681.84 875.99L328.6 731.48c-17.36-7.1-25.68-26.94-18.58-44.3l232-567.09c7.1-17.36 26.94-25.68 44.3-18.58l353.24 144.51c17.36 7.1 25.68 26.94 18.58 44.3l-232 567.09c-7.1 17.37-26.93 25.69-44.3 18.58z"/></g></svg>